<svg xmlns="http://www.w3.org/2000/svg" width="500" height="500" version="1.0" viewBox="0 0 375 375"><defs><clipPath id="a"><path d="M137.629 55h99.75v164h-99.75Zm0 0"/></clipPath></defs><path fill="#fff" d="M-37.5-37.5h450v450h-450z"/><path fill="#fff" d="M-37.5-37.5h450v450h-450z"/><path fill="#fff" d="M-37.5-37.5h450v450h-450z"/><g clip-path="url(#a)"><path fill-rule="evenodd" d="M167.738 96.89V83.364c0-1.883 1.11-3.437 2.88-4.21l.663-.223 58.567-22.618 1.55-.554c1.442-.555 2.88-.332 4.098.441 1.215.89 1.883 2.11 1.883 3.66v32.93c0 1.883-1.11 3.438-2.879 4.211l-.664.223-82.258 31.82c-1.773.664-2.879 2.328-2.879 4.21v7.208c0 1.555.664 2.773 1.883 3.66 1.215.887 2.766.996 4.094.441l75.062-29.156 1.551-.554c1.438-.555 2.879-.332 4.094.441 1.219.887 1.883 2.219 1.883 3.66v30.711c0 1.883-1.106 3.438-2.88 4.102l-.663.222-24.246 9.422c-1.77.668-2.88 2.328-2.88 4.102v30.933c0 1.774-.882 3.215-2.433 3.993l-.664.332-28.012 14.3-1.66.778c-1.437.777-2.988.664-4.316-.223-1.328-.887-2.106-2.215-2.106-3.77v-51.773c0-1.887 1.11-3.437 2.88-4.215l2.214-.887c1.441-.554 2.879-.332 4.098.446 1.218.887 1.882 2.105 1.882 3.656v34.48c0 1.555.774 2.997 2.102 3.77 1.328.887 2.879.887 4.316.223l7.973-4.102c1.55-.777 2.438-2.219 2.438-3.992v-31.707c0-1.887 1.105-3.438 2.879-4.102l.664-.222 24.242-9.426c1.773-.664 2.879-2.328 2.879-4.102v-6.875c0-1.55-.664-2.77-1.883-3.656-1.215-.887-2.656-1-4.094-.445l-45.059 17.52-22.253 8.648-7.75 2.992-1.551.555c-1.438.554-2.88.332-4.094-.446-1.219-.886-1.883-2.215-1.883-3.656v-31.043c0-1.887 1.106-3.437 2.88-4.215l.663-.222 12.84-4.989 36.867-14.3 32.551-12.641c1.77-.664 2.879-2.328 2.879-4.211v-9.203c0-1.555-.664-2.774-1.883-3.66-1.219-.887-2.656-.996-4.098-.442L181.578 86.47c-1.77.664-2.879 2.328-2.879 4.21v5.102c0 1.887-1.105 3.438-2.879 4.215l-2.21.887c-1.442.555-2.88.332-4.098-.445-1.219-.887-1.883-2.106-1.883-3.66Zm0 0"/></g><path d="M101.902 253.972h1.43c.456 0 .968-.152 1.425-.152.512 0 .969.102 1.43.102.508 0 .968.05 1.426.05.511 0 .968-.152 1.48-.152.457 0 .918.152 1.426.152.46 0 .918-.152 1.43-.152.613 0 1.07 0 1.53-.152a2.1 2.1 0 0 0 1.071-1.02c.152-.41.355-.867.406-1.48a4.258 4.258 0 0 0-.152-1.528c-.203-.562-.512-.918-1.02-1.074a7.11 7.11 0 0 0-1.53-.152c-.458 0-.919.05-1.376.05-.41 0-.867-.101-1.328-.101-.457 0-.867.05-1.324.05-.461 0-.918.052-1.38 0H104.199c-.46 0-.918-.1-1.328-.1-.457 0-.918-.052-1.375-.052-.41.051-.867.102-1.328.153-.406 0-.816.101-1.222.152-.41 0-.868-.05-1.223-.05-.461 0-.867.1-1.227.1-.765.052-.867-.507-1.324-.05-.46.512-.05.563-.152 1.43-.051.406.05.918 0 1.426-.051.46-.156.918-.207 1.43 0 .304.05.866.105 1.429 0 .559-.156 1.07-.156 1.426 0 .46-.05.918-.05 1.379 0 .507.05.968 0 1.425 0 .512.1.97.1 1.43v1.426c-.05.46-.05.969-.05 1.43 0 .457-.102.918-.102 1.425 0 .461.051.918.051 1.43 0 .457.051.918.051 1.375 0 .512-.152.969-.152 1.43-.051.508.152.968.152 1.426 0 .46-.05.968-.05 1.43 0 .456-.102.968-.102 1.425 0 .46.101.918.101 1.43 0 .46-.152.918-.152 1.43-.05.558 0 1.019 0 1.527.05.46.152.968.101 1.582 0 .613.153 1.07.512 1.375.356.258.918.308 1.477.41.46.05.968.152 1.53.152.513 0 .97 0 1.224-.203.41-.203.511-.664.613-1.02.101-.46.101-.867.152-1.226.051-.457.153-.918.203-1.375 0-.46-.101-.969-.101-1.43v-1.375c-.051-.46 0-.918-.051-1.379 0-.457 0-.918-.05-1.375 0-.41.05-.816.05-1.222.05-.41 0-.817 0-1.176.05-.71-.203-.766.203-1.172.461-.457.461-.101 1.227-.152.355-.051.765-.051 1.222-.051.41 0 .817-.05 1.274 0 .41-.05.867-.05 1.277 0 .406 0 .867-.05 1.274-.05.46 0 .867.05 1.328.05.406 0 .867-.05 1.273-.102.406 0 .867.051 1.324 0 .461-.101.766-.511 1.024-.918.254-.359.355-.816.508-1.277.152-.457.304-.867.304-1.223a1.821 1.821 0 0 0-.558-1.171 2.136 2.136 0 0 0-1.121-.614c-.512-.101-1.075-.152-1.582-.203-.563 0-1.122.102-1.633.102-.457 0-.918-.153-1.426-.153h-1.43c-.457 0-.918.102-1.426.102-.46 0-.917.05-1.43.05-.456 0-.917-.05-1.374-.05 0-.512.05-.918.05-1.379 0-.457-.156-.918-.156-1.324 0-.457.157-.918.157-1.375 0-.41-.106-.867-.106-1.328v-1.375c0-.41.106-.817.106-1.278h1.375ZM142.136 257.39c-.203-.41-.355-.867-.559-1.222-.308-.512-.664-.817-.867-1.075a8.071 8.071 0 0 1-.867-1.02c-.305-.355-.46-.76-.664-1.17-.254-.356-.508-.716-.66-1.122-.207-.512-.41-.918-.563-1.277-.254-.457-.41-.864-.613-1.121-.355-.458-.66-.715-1.07-.817-.356-.152-.817-.101-1.324-.101-.41 0-.817-.153-1.329-.153-.507 0-.918.102-1.324.102-.562 0-1.07.05-1.328.203-.305.258-.406.664-.254 1.328.102.254.461.715.817 1.273.203.41.511.868.816 1.278.254.457.559.918.816 1.273.356.563.766.969.918 1.223.254.308.407.715.66 1.125.258.305.512.66.766 1.07.203.356.41.766.664 1.121.203.356.457.715.715 1.07.254.407.457.766.715 1.122.254.36.508.715.762 1.07.257.36.41.766.664 1.125.203.254.562.559.765.969.153.304.305.71.457 1.07.207.457.36.918.36 1.172 0 .664-.102 1.07-.102 1.43 0 .507.102.867.05 1.375v1.48c-.05.457-.151.918-.151 1.426-.051.512 0 1.02-.051 1.48 0 .508-.055 1.02-.106 1.532 0 .457-.101.968-.152 1.476 0 .461.05.969.05 1.48 0 .508.052.97.102 1.426 0 .563.106.918.36 1.176.254.254.66.406 1.12.457.356.051.817.051 1.274.051.461 0 .969-.102 1.48-.203.512-.05 1.02-.102 1.376-.36.46-.253.765-.66.765-1.222-.05-.457-.101-.867-.152-1.274v-1.277c0-.355-.102-.762-.102-1.273 0-.407.102-.817.102-1.274.05-.41 0-.816 0-1.328.05-.457.102-.969.102-1.527l-.153-1.532c-.05-.562-.101-1.07-.152-1.53-.05-.61-.05-1.173-.05-1.528 0-.461.1-.918.304-1.43.203-.457.36-.918.613-1.426.254-.41.508-.816.816-1.277.305-.406.61-.766.97-1.172.253-.41.66-.765.968-1.172.203-.207.457-.664.867-1.175.254-.356.508-.762.817-1.172.304-.356.457-.817.761-1.223.258-.41.614-.766.918-1.176.258-.406.563-.761.817-1.172.308-.406.562-.816.816-1.172.309-.46.461-.917.664-1.273.406-.562.664-.969.817-1.227.457-.66.66-1.07.507-1.324-.152-.308-.609-.511-1.375-.562-.41-.051-.918.05-1.53.05-.56 0-1.02-.203-1.376-.203-.613 0-.969.153-1.328.461-.254.203-.508.559-.918 1.07-.203.305-.61.61-.918 1.071-.254.305-.457.715-.71 1.121-.208.356-.36.766-.614 1.121-.203.36-.41.766-.613 1.176-.204.355-.508.66-.715 1.07-.203.356-.457.711-.66 1.121-.258.356-.36.817-.614 1.172-.254.36-.508.664-.765 1.02-.254.36-.61.46-.97.41-.405 0-.765-.102-.968-.461-.254-.406-.457-.816-.664-1.223ZM180.845 261.879c.203 0 .559.507.969 1.171.203.356.559.766.816 1.223.254.41.457.867.66 1.328.258.457.41.969.614 1.324.254.41.562.766.816 1.172.203.41.457.817.715 1.227.254.355.406.816.66 1.172.258.406.664.715.867 1.12.254.411.563.767.817 1.177.254.355.46.761.715 1.172.304.406.558.765.816 1.171.254.407.406.817.66 1.223.258.41.563.766.817 1.176.257.406.46.867.714 1.273.305.356.665.715 1.02 1.02.36.254.766.512 1.227.664.457.152.918.152 1.476.152.563 0 .969 0 1.277-.05.56-.153.711-.461.813-.919.05-.355.05-.765.105-1.324 0-.46-.054-.918 0-1.379 0-.457.102-.918.153-1.375 0-.46-.102-.918-.102-1.379 0-.457.051-.918.051-1.375 0-.46.102-.918.102-1.378 0-.457-.102-.918-.051-1.426 0-.461.101-.918.101-1.38 0-.456.051-.917.051-1.374 0-.461-.101-.918-.101-1.379 0-.457.152-.918.152-1.375v-1.43c.05-.457-.05-.918-.05-1.375v-1.379c0-.457.1-.918.1-1.375 0-.46.051-.918.051-1.328 0-.508-.101-.969-.101-1.375 0-.511.152-.969.152-1.43 0-.456-.05-.917-.05-1.374v-1.38c0-.507.101-.917.05-1.324-.05-.511-.101-.968-.254-1.328-.203-.457-.511-.765-.968-.918-.36-.152-.817-.05-1.329-.05-.406.05-.867.05-1.375.152-.359.05-.765.258-1.226.41 0 .406-.102.766-.102 1.273-.05.41 0 .868 0 1.329 0 .457-.101.918-.101 1.375 0 .46.101.918.101 1.379 0 .406-.101.867-.101 1.324 0 .46.05.918.05 1.379 0 .457-.152.918-.152 1.375 0 .41.153.867.153 1.324 0 .46-.102.918-.102 1.379 0 .457-.05.918-.05 1.324 0 .46.05.918.05 1.379 0 .457-.05.918-.05 1.324-.052.512-.102.969-.102 1.328-.051.867-.051 1.375-.102 1.324-.46-.05-.816-.507-1.172-1.02-.308-.507-.562-1.12-.765-1.425-.254-.36-.614-.715-.817-1.074-.254-.406-.512-.813-.765-1.223-.254-.355-.356-.816-.614-1.222-.254-.41-.61-.715-.863-1.121-.207-.41-.46-.766-.715-1.176-.254-.407-.46-.817-.715-1.223-.254-.406-.457-.816-.664-1.223-.254-.359-.508-.765-.765-1.175-.254-.407-.407-.817-.66-1.223-.204-.406-.563-.715-.817-1.121-.254-.36-.41-.817-.664-1.172-.254-.41-.559-.766-.816-1.176-.204-.406-.457-.816-.66-1.172a4.69 4.69 0 0 0-.868-1.172c-.36-.308-.715-.41-1.277-.46-.356-.051-.867-.051-1.426 0-.816-.051-1.277-.051-1.582-.051-.613.05-.664.254-.664 1.172 0 .46.102.918.102 1.379v1.375c0 .46-.153.918-.153 1.378 0 .457.051.918.051 1.375 0 .461-.05.918 0 1.38 0 .456.05.917.05 1.374 0 .461.052.918.052 1.38 0 .456-.051.917-.051 1.374 0 .461-.102.918-.102 1.328.051.457.153.918.153 1.375 0 .461.05.918.05 1.38 0 .456-.05.917-.05 1.374v1.38c0 .405.05.917.05 1.374 0 .461-.05.918-.05 1.43v1.426c0 .46-.102.918-.102 1.43 0 .456.102.917.102 1.374 0 .512-.051.97-.102 1.43 0 .457.05.969.05 1.426 0 .46-.05.969-.05 1.379 0 .613.102 1.02.309 1.324.203.36.558.613 1.07.715.355.101.816.152 1.324.152.563 0 1.02-.05 1.43-.152.508-.102.918-.305 1.172-.715.203-.305.254-.762.304-1.324 0-.356 0-.817-.05-1.274v-1.328c-.051-.457-.051-.918-.051-1.273v-1.48c-.05-.509-.05-.97-.05-1.427v-1.48c0-.512.05-.969.05-1.48 0-.457.101-.97.101-1.426 0-.512-.101-.969-.101-1.48v-1.477c0-.461 0-.918-.05-1.48.05-.563-.153-1.325.41-1.223ZM224.342 258.511c0-.457.102-.918.051-1.425 0-.512-.101-.97-.101-1.43 0-.512.05-1.02.05-1.43 0-.355-.152-.812-.203-1.324 0-.406-.05-.867-.05-1.324-.051-.512.05-.969.05-1.328-.05-.559-.203-.918-.406-1.223-.207-.36-.562-.46-1.074-.512-.356-.05-.762-.101-1.274-.05-.511 0-.918 0-1.273.05-.512.102-.816.36-1.02.715-.156.305-.359.664-.308 1.223 0 .308.05.816.05 1.328 0 .508-.05 1.02-.05 1.324v1.38c0 .456.101.917.101 1.374v1.379c0 .508-.05.969-.05 1.426 0 .46.101.918.101 1.379 0 .457-.05.918-.05 1.375v1.43c0 .456-.051.917-.051 1.374v2.754c0 .512.05.969.05 1.43 0 .457-.101.918-.05 1.375 0 .46.152.918.152 1.379 0 .457-.05.918-.05 1.426 0 .46.05.918.05 1.379 0 .457-.102.918-.102 1.476 0 .461.051.969.051 1.48 0 .458 0 .97-.05 1.481 0 .508-.051.918.05 1.223.156.406.461.613.867.765.309.153.715.203 1.176.254.356 0 .762.102 1.223.102.613 0 1.12-.153 1.426-.356.46-.257.664-.715.816-1.175.102-.457.258-.918.258-1.477.05-.41.101-.867.101-1.328v-1.324c0-.457-.101-.918-.101-1.325-.051-.46 0-.918 0-1.378-.051-.458 0-.918 0-1.325.05-.46.05-.918.152-1.328.152-.457.305-.867.508-1.222.207-.41.41-.817.715-1.172.304-.309.664-.563 1.07-.868.309-.257.664-.613 1.07-.867.207.356.461.918.715 1.426.254.461.512.918.715 1.379.254.559.512 1.02.715 1.375l.61 1.227c.206.406.46.812.663 1.222.203.406.512.766.715 1.172.203.41.406.816.613 1.227.204.406.356.863.56 1.222.202.457.304.918.51 1.274.204.46.407.867.56 1.226.257.457.46.918.613 1.223.304.508.664.766.968.969.407.254.817.355 1.325.304.41-.05.816-.101 1.328-.101h1.375c.613 0 1.02-.203 1.277-.457.203-.258.203-.614 0-1.278-.152-.355-.258-.765-.562-1.273-.254-.512-.407-.969-.614-1.328-.254-.508-.609-.867-.812-1.223-.309-.508-.36-1.02-.563-1.324-.254-.46-.562-.766-.816-1.227-.203-.406-.406-.816-.613-1.222-.254-.406-.356-.867-.559-1.274-.203-.41-.512-.765-.715-1.175-.254-.407-.508-.762-.765-1.172a14.168 14.168 0 0 0-.715-1.223c-.203-.41-.356-.867-.559-1.277-.203-.407-.41-.813-.613-1.223-.254-.406-.559-.816-.766-1.172-.355-.715-.558-.562-.61-1.277-.05-.711.255-.559.661-1.223.258-.355.461-.867.766-1.223.257-.253.511-.613.816-1.019.254-.309.664-.613.918-.969.254-.36.563-.664.816-1.07.254-.309.512-.715.766-1.074.254-.356.457-.762.715-1.121.254-.407.61-.664.812-1.02.309-.406.512-.766.766-1.121.258-.41.461-.816.664-1.121.356-.461.461-.918.356-1.277-.102-.407-.356-.715-.97-.868-.355-.101-.816-.101-1.374-.101-.613.05-1.02-.051-1.43 0-.61 0-.969.152-1.324.308a2.946 2.946 0 0 0-1.121.813c-.309.308-.512.715-.766 1.074-.305.305-.664.61-.918.969-.254.305-.46.71-.715 1.07-.254.356-.507.715-.816 1.02-.305.406-.66.715-.969 1.07-.304.355-.61.766-.918 1.121-.304.36-.61.715-.918 1.07-.355.36-.765.664-1.07 1.024-.305.355-.613.71-.918 1.07-.305.356-.613.762-.969 1.121-.203.203-.457.102-.457-.203-.054-.41-.258-.867-.258-1.43ZM265.295 256.32c.152-.46.355-.867.61-1.227.257-.355.612-.609.968-.867.36-.254.664-.61 1.121-.761.41-.153.867-.207 1.328-.258.508-.102 1.02-.153 1.48-.051.508.102.97.258 1.426.46.461.204.918.407 1.38.665.406.254.863.559 1.273.812.457.258.867.563 1.273.766.512.309.867.41 1.176.461.457.05.812-.05 1.223-.41.254-.254.457-.66.816-1.07.254-.305.559-.817.816-1.375.204-.614.407-1.278.051-1.582-.715-.563-1.02-.766-1.379-1.02-.304-.203-.664-.46-1.425-.918-.461-.305-.97-.46-1.38-.664a15.613 15.613 0 0 0-1.374-.559c-.461-.156-.918-.359-1.43-.46-.457-.102-.969-.254-1.477-.305-.46-.051-.968.05-1.48.05s-.969.051-1.379.102c-.508.05-.969.05-1.426.152-.46.102-.867.254-1.324.407-.41.156-.816.36-1.227.562-.457.203-.867.41-1.222.664-.41.254-.766.559-1.07.867-.36.356-.766.61-1.02.97-.309.355-.461.816-.715 1.222-.203.41-.46.765-.664 1.222-.152.41-.254.868-.355 1.329-.102.457-.204.918-.258 1.375-.051.46-.051.918-.051 1.43 0 .456 0 .968.105 1.425.051.461.204.969.356 1.379.152.457.457.867.664 1.273.254.41.559.817.867 1.176.305.356.711.61 1.121.918.356.305.766.559 1.172.762.406.207.867.41 1.324.562.41.153.868.305 1.278.457.457.157.867.309 1.324.461.41.153.867.305 1.277.457.457.157.867.258 1.324.461.41.153.817.356 1.223.512.461.152.817.457 1.277.61.407.152.868.253 1.274.46.41.254.766.508 1.07.817.309.355.563.71.664 1.172.051.406.102.867 0 1.375-.101.41-.304.867-.613 1.328-.254.355-.66.61-1.07.918-.356.304-.817.508-1.223.71-.46.208-.867.41-1.328.512-.508.102-.969.051-1.426 0a7.673 7.673 0 0 1-1.48-.304 8.16 8.16 0 0 1-1.375-.614c-.461-.203-.918-.406-1.328-.664-.457-.254-.813-.609-1.223-.918-.406-.355-.867-.609-1.121-.968-.41-.457-.664-.766-1.02-.868-.41-.101-.715.157-1.172.512-.308.203-.613.508-.972.867-.407.407-.813.766-1.07 1.07-.356.462-.66.919-.508 1.376.152.36.457.765.968 1.175.203.254.508.61 1.02 1.02.305.305.664.613 1.07.918.356.254.817.457 1.223.715.41.254.816.457 1.277.66.457.207.918.258 1.375.36.461.152.867.456 1.38.507.405.102.917.05 1.425.102.46.05.918.207 1.43.207.457 0 .918-.051 1.324-.051.512-.055.918-.156 1.379-.207.457-.05.867-.203 1.324-.305.46-.101.867-.203 1.277-.355.457-.156.864-.309 1.274-.512.406-.203.816-.406 1.172-.664.41-.254.714-.61 1.02-.918.358-.254.765-.508 1.019-.867.308-.356.511-.762.714-1.172.204-.406.461-.766.614-1.223.152-.41.254-.867.355-1.328.051-.406.051-.867.051-1.324 0-.461 0-.918-.05-1.379a11.47 11.47 0 0 0-.255-1.273c-.101-.457-.304-.868-.46-1.274-.153-.41-.255-.816-.508-1.226-.204-.356-.512-.711-.766-1.07-.305-.305-.664-.61-.969-.919-.355-.254-.613-.609-1.02-.867a8.127 8.127 0 0 0-1.12-.66 9.073 9.073 0 0 0-1.278-.512c-.406-.101-.816-.203-1.222-.355-.356-.102-.766-.309-1.172-.41-.36-.153-.766-.254-1.176-.407-.406-.152-.813-.203-1.223-.359-.406-.152-.867-.254-1.324-.457-.41-.152-.816-.41-1.227-.613a5.873 5.873 0 0 1-1.273-.61 4.46 4.46 0 0 1-.969-.968c-.304-.36-.562-.817-.613-1.278 0-.457.152-.918.258-1.324Zm0 0"/></svg>